<?xml version="1.0" encoding="utf-8"?>
<!-- Generator: Adobe Illustrator 19.1.0, SVG Export Plug-In . SVG Version: 6.00 Build 0)  -->
<svg version="1.1" id="Layer_1" xmlns="http://www.w3.org/2000/svg" xmlns:xlink="http://www.w3.org/1999/xlink" x="0px" y="0px"
	 viewBox="0 0 738 240" style="enable-background:new 0 0 738 240;" xml:space="preserve">
<style type="text/css">
	.st0{fill:#FFFFFF;}
</style>
<g>
	<path class="st0" d="M584.4,125.1c0-22.2,0-44.5,0-66.7c0-1.6-0.2-1.4,1.5-1.4c14.9,0,29.8-0.1,44.8,0c8.4,0,16.7,1.1,24.7,4.1
		c15.3,5.6,25.6,16.3,31.3,31.5c2.2,5.9,3.5,12.1,4.3,18.3c0.8,6,1,12.1,0.8,18.2c-0.3,9-1.4,17.9-4.2,26.5
		c-3.7,11.3-10.4,20.5-20.1,27.5c-6.1,4.3-13,7-20.3,8.6c-5.7,1.2-11.4,1.7-17.2,1.8c-14.7,0-29.5,0-44.2,0c-1.6,0-1.5,0.2-1.5-1.4
		C584.4,169.7,584.4,147.4,584.4,125.1z M613.8,125.2c0,13.8,0,27.7,0,41.5c0,0.3,0,0.7,0,1c0,0.3,0.1,0.4,0.4,0.4
		c0.3,0,0.5,0,0.8,0c4.3,0,8.7,0,13,0c3.1,0,6.2-0.2,9.3-0.7c5.9-1.1,11-3.6,15.2-8c3-3.2,5-7,6.6-11c1.7-4.5,2.4-9.3,2.9-14.1
		c0.7-7.8,0.7-15.5-0.6-23.2c-0.8-4.7-2.1-9.3-4.3-13.5c-3.3-6.4-8.2-11-15.1-13.3c-3.8-1.3-7.7-1.9-11.7-1.9c-5,0-10,0-15.1,0
		c-1.5,0-1.3-0.1-1.3,1.3C613.8,97.5,613.8,111.4,613.8,125.2z"/>
	<path class="st0" d="M431.5,193.4c-0.3,0.2-0.7,0.1-1.1,0.1c-9,0-18.1,0-27.1,0c-1.2,0-1.2,0-1.5-1.2c-2.2-8.7-4.5-17.4-6.7-26.1
		c0-0.2-0.1-0.4-0.1-0.5c0-0.6-0.4-0.8-1-0.8c-2.5,0-5.1,0-7.6,0c-9.5,0-19,0-28.5,0c-0.2,0-0.4,0-0.6,0c-1.2,0-1.2,0-1.5,1.1
		c-0.4,1.4-0.8,2.9-1.2,4.3c-2,7.4-4.1,14.7-6.1,22.1c-0.3,1-0.3,1-1.2,1c-9.2,0-18.4,0-27.6,0c-0.2,0-0.4,0-0.7,0
		c-0.1-0.5,0.1-0.8,0.2-1.2c5.3-18.5,10.7-37.1,16-55.6c7.6-26.2,15.1-52.3,22.7-78.5c0.1-0.2,0.1-0.4,0.2-0.6
		c0.1-0.4,0.3-0.6,0.7-0.5c0.2,0,0.4,0,0.7,0c10.7,0,21.4,0,32.1,0c0.1,0,0.2,0,0.3,0c0.9,0,0.9,0,1.1,0.9c0.5,1.6,0.9,3.2,1.4,4.8
		c12.1,42.3,24.1,84.6,36.2,126.9c0.3,1,0.6,2.1,0.9,3.1C431.6,193,431.7,193.2,431.5,193.4z M376.1,92.1c-0.1,0-0.2,0-0.2,0
		c-4.3,15.9-8.7,31.8-13.1,47.9c8.6,0,17,0,25.6,0C384.3,123.9,380.2,108,376.1,92.1z"/>
	<path class="st0" d="M223.9,125.2c0-22.2,0-44.5,0-66.7c0-1.7-0.1-1.5,1.5-1.5c16.7,0,33.4-0.1,50.2,0c7.7,0,15.3,1,22.7,3.6
		c4.8,1.7,9.1,4,12.9,7.4c5.3,4.7,8.8,10.6,10.6,17.4c2.2,8.6,2.2,17.3,0.1,25.9c-2.8,10.8-9.5,18.4-19.5,23.2
		c-4.9,2.4-10.2,3.7-15.6,4.5c-4.5,0.7-9.1,0.9-13.7,0.9c-6.2,0-12.4,0-18.6,0c-1.4,0-1.2,0-1.2,1.2c0,16.9,0,33.9,0,50.8
		c0,1.7,0.2,1.5-1.5,1.5c-8.8,0-17.5,0-26.3,0c-0.3,0-0.6,0-0.9,0c-0.4,0-0.6-0.2-0.6-0.6c0-0.4,0-0.7,0-1.1
		C223.9,169.6,223.9,147.4,223.9,125.2z M253.2,98.5c0,5.2,0,10.5,0,15.7c0,1.3-0.1,1.2,1.2,1.2c5.2,0,10.3,0,15.5,0
		c2.8,0,5.5-0.1,8.3-0.4c2.7-0.3,5.2-0.9,7.7-2.1c3.9-1.9,6.4-5,7.4-9.4c0.7-3.2,0.6-6.5,0-9.7c-0.9-5.6-4.2-9.1-9.5-10.8
		c-2.6-0.8-5.2-1.2-7.8-1.4c-7.3-0.4-14.5-0.1-21.8-0.2c-0.9,0-0.9,0-0.9,0.9c0,0.3,0,0.5,0,0.8C253.2,88.3,253.2,93.4,253.2,98.5z"
		/>
	<path class="st0" d="M416.6,57c0.5,0,0.9,0,1.3,0c8.9,0,17.8,0,26.7,0c0.1,0,0.1,0,0.2,0c1,0,1,0,1.2,1c1.3,5.4,2.6,10.8,3.9,16.2
		c4.5,18.6,8.9,37.3,13.4,55.9c1.4,5.8,2.8,11.5,4.1,17.3c0.1,0.3,0.1,0.7,0.4,1c0.5-1.5,0.8-3,1.2-4.4c6.2-24.7,12.4-49.3,18.6-74
		c1-4,2-8,3-12c0.2-1,0.2-1,1.3-1c9.1,0,18.1,0,27.2,0c0.1,0,0.2,0,0.3,0c0.7,0,0.8,0.1,0.6,0.8c-0.5,2-1,3.9-1.6,5.9
		c-8.3,31.2-16.6,62.3-24.9,93.5c-3.1,11.7-6.2,23.4-9.3,35.1c-0.1,0.2-0.1,0.4-0.2,0.7c-0.1,0.4-0.3,0.7-0.8,0.6
		c-0.2,0-0.4,0-0.7,0c-9.5,0-19,0-28.6,0c-0.1,0-0.1,0-0.2,0c-1.4,0-1.1,0-1.4-1.1c-1.5-5.4-2.9-10.9-4.3-16.3
		c-8.5-32.2-17-64.4-25.6-96.5c-1.9-7.1-3.8-14.2-5.6-21.3C416.8,57.9,416.7,57.5,416.6,57z"/>
	<path class="st0" d="M203.7,125.2c0,22.3,0,44.5,0,66.8c0,1.6,0.2,1.4-1.4,1.4c-8.8,0-17.7,0-26.5,0c-0.2,0-0.5,0-0.7,0
		c-0.5,0-0.8-0.2-0.7-0.7c0-0.3,0-0.5,0-0.8c0-44.5,0-89,0-133.5c0-1.7-0.2-1.5,1.5-1.5c8.8,0,17.7,0,26.5,0c1.5,0,1.3-0.1,1.3,1.3
		C203.7,80.6,203.7,102.9,203.7,125.2z"/>
	<path class="st0" d="M564.3,125.3c0,22.2,0,44.5,0,66.7c0,1.7,0.2,1.5-1.5,1.5c-8.8,0-17.6,0-26.4,0c-0.3,0-0.6,0-0.9,0
		c-0.4,0-0.6-0.2-0.6-0.6c0-0.3,0-0.6,0-0.9c0-44.5,0-89,0-133.5c0-1.6-0.2-1.5,1.4-1.5c8.8,0,17.7,0,26.5,0c0.2,0,0.4,0,0.6,0
		c0.8,0,0.8,0,0.9,0.9c0,0.3,0,0.6,0,0.9C564.3,81,564.3,103.1,564.3,125.3z"/>
	<path class="st0" d="M96.4,123.3c-0.3-0.4-0.7-0.6-1-0.8c-3-2.1-6.1-4.3-9.1-6.4c-0.8-0.6-0.8-0.6-0.2-1.4c1.4-2,2.8-4,4.1-6
		c0.5-0.7,0.5-0.7,1.2-0.3c3.3,2.3,6.5,4.6,9.8,6.8c0.6,0.4,0.6,0.5,0.1,1.1c-1.4,2-2.8,4-4.2,6c-0.6,0.9-0.6,0.8,0.3,1.4
		c3.1,2.1,6.1,4.3,9.2,6.5c0.8,0.6,0.8,0.6,0.3,1.4c-1.4,2-2.8,4-4.2,6c-0.5,0.8-0.5,0.8-1.3,0.2c-3.1-2.2-6.2-4.3-9.3-6.5
		c-0.8-0.6-0.7-0.7-1.4,0.2c-1.4,2-2.8,4-4.2,6c-0.5,0.7-0.5,0.7,0.2,1.2c3,2.1,6,4.2,9,6.3c0.2,0.2,0.4,0.3,0.6,0.4
		c0.4,0.2,0.4,0.5,0.1,0.8c-0.2,0.3-0.4,0.5-0.6,0.8c-5.5,7.8-11.1,15.7-16.6,23.5c-0.2,0.4-0.6,0.7-0.7,1.3c0.5,0,0.9,0,1.4,0
		c17.8,0,35.5,0,53.3,0c1.7,0,1.5-0.2,1.5,1.5c0,6.5,0,13,0,19.5c0,0.3,0,0.6,0,0.9c0,0.4-0.2,0.6-0.6,0.6c-0.3,0-0.5,0-0.8,0
		c-28.5,0-57,0-85.6,0c-1.5,0-1.4,0.1-1.4-1.4c0-6.5,0-13,0-19.5c0-0.7,0.2-1.3,0.6-1.9c10.9-15.9,21.9-31.8,32.8-47.7
		c0.2-0.3,0.4-0.5,0.6-0.8c0.5,0.1,0.8,0.4,1.1,0.6c3,2.1,6.1,4.3,9.1,6.4c0.7,0.5,0.7,0.5,1.2-0.2
		C93.3,127.7,94.8,125.5,96.4,123.3z"/>
	<path class="st0" d="M80.8,48.9c11,0,22,0,33.1,0c1.5,0,1.4-0.2,1.4,1.4c0,6.6,0,13.1,0,19.7c0,0.2,0,0.4,0,0.6
		c0,0.8,0,0.8-0.8,0.9c-0.2,0-0.4,0-0.7,0c-22,0-44,0-66,0c-0.1,0-0.1,0-0.2,0c-1.2,0-1.2,0-1.2-1.2c0-6.7,0-13.3,0-20
		c0-0.2,0-0.4,0-0.6c0-0.5,0.1-0.7,0.6-0.7c0.3,0,0.6,0,0.9,0C58.9,48.9,69.8,48.9,80.8,48.9z"/>
	<path class="st0" d="M135.3,91.4c-1.9-1.3-3.7-2.6-5.5-3.8c-0.5-0.3-0.4-0.6-0.1-1c1.6-2.1,3.1-4.3,4.7-6.4
		c0.2-0.2,0.3-0.4,0.5-0.6c0.3-0.4,0.2-0.6-0.2-0.9c-1.8-1.2-3.6-2.5-5.3-3.7c-0.7-0.5-0.7-0.4-1.1,0.2c-1.5,2.2-3,4.4-4.4,6.6
		c-0.1,0.2-0.3,0.4-0.4,0.7c-0.2,0.3-0.4,0.4-0.7,0.1c-0.4-0.3-0.9-0.6-1.3-0.9c-1.2-0.8-2.4-1.7-3.6-2.5c-0.7-0.5-0.7-0.5-0.3-1.3
		c2.6-4.3,5.3-8.6,7.9-13c4.8-7.8,9.6-15.7,14.3-23.5c0.2-0.3,0.3-0.5,0.5-0.8c1.3-1.9,3.5-2.3,5.4-1.1c0.6,0.4,1.1,0.8,1.7,1.2
		c4.9,3.4,9.8,6.8,14.6,10.3c0.6,0.4,1.1,0.8,1.5,1.4c0.8,1.4,0.8,2.8,0,4.1c-0.2,0.3-0.4,0.5-0.6,0.8
		c-8.9,11.1-17.8,22.2-26.7,33.4C135.8,90.8,135.6,91,135.3,91.4z M151.4,59.2c1.7,0,3.2-1,3.7-2.6c0.6-1.6,0.1-3.4-1.3-4.4
		c-2.1-1.5-4.2-3-6.3-4.4c-1.8-1.2-4.2-0.7-5.4,1c-1.2,1.7-0.8,4.1,1,5.4c2,1.5,4.1,2.9,6.2,4.3C149.8,59,150.5,59.3,151.4,59.2z"/>
	<path class="st0" d="M119.8,87.5c1.9,1.4,3.8,2.6,5.6,3.9c0.3,0.2,0.5,0.1,0.7-0.2c0.4-0.5,0.8-1.1,1.2-1.6
		c0.2-0.4,0.5-0.4,0.8-0.1c1.7,1.2,3.4,2.4,5.2,3.6c0.5,0.3,0.3,0.6,0.1,0.9c-1.4,2-2.9,4.1-4.3,6.2c-1.7,2.5-3.4,4.9-5.2,7.4
		c-0.4,0.6-0.4,0.8-1.2,0.2c-2.7-1.9-5.4-3.8-8.1-5.7c-0.6-0.4-0.6-0.5-0.2-1.1c1.1-1.6,2.2-3.1,3.3-4.7c0.7-1.1,0.8-0.9-0.3-1.7
		c-2.4-1.7-4.7-3.3-7.1-5c-0.8-0.6-0.8-0.6-0.3-1.4c1.6-2.3,3.2-4.6,4.8-6.9c0.5-0.8,0.6-0.8,1.4-0.2c1.5,1,3,2.1,4.5,3.2
		c0.8,0.5,0.8,0.5,0.3,1.3C120.7,86.3,120.3,86.9,119.8,87.5z"/>
	<path class="st0" d="M117.9,115.8c-0.1,0.4-0.4,0.7-0.7,1c-1.4,2-2.8,3.9-4.2,5.9c-0.3,0.5-0.6,0.5-1.1,0.2
		c-3.4-2.4-6.8-4.8-10.2-7.1c-0.1-0.4,0.2-0.6,0.4-0.8c1.4-2,2.8-4.1,4.2-6.1c0.5-0.7,0.5-0.7-0.2-1.2c-3.2-2.2-6.4-4.5-9.6-6.7
		c-0.8-0.5-0.9-0.5-0.3-1.4c1.3-1.8,2.5-3.6,3.8-5.5c0.5-0.7,0.5-0.7,1.2-0.3c3.3,2.2,6.7,4.4,10,6.6c0.7,0.4,0.7,0.5,0.2,1.1
		c-1.3,1.9-2.7,3.9-4.1,5.8c-0.5,0.7-0.5,0.7,0.2,1.2c3.1,2.2,6.1,4.3,9.2,6.5C117.3,115.3,117.7,115.5,117.9,115.8z"/>
</g>
</svg>
